<svg version="1.1" xmlns="http://www.w3.org/2000/svg" viewBox="0 0 1055.179462432861 275.25504302978516" width="1055.179462432861" height="275.25504302978516">
  <!-- svg-source:excalidraw -->
  
  <defs>
    <style>
      @font-face {
        font-family: "Virgil";
        src: url("https://excalidraw.com/Virgil.woff2");
      }
      @font-face {
        font-family: "Cascadia";
        src: url("https://excalidraw.com/Cascadia.woff2");
      }
    </style>
  </defs>
  <g stroke-linecap="round" transform="translate(77.6593017578125 161.87834930419922) rotate(0 26.93796157836914 24.124393463134766)"><path d="M26.94 0 C32.42 -0.31, 39.83 2.32, 44.25 5.64 C48.67 8.97, 52.46 14.84, 53.47 19.94 C54.47 25.03, 53.15 31.71, 50.27 36.19 C47.38 40.66, 41.58 45.03, 36.15 46.79 C30.73 48.56, 23.15 48.56, 17.72 46.79 C12.3 45.03, 6.49 40.66, 3.61 36.19 C0.72 31.71, -0.59 25.03, 0.41 19.94 C1.41 14.84, 5.2 8.97, 9.62 5.64 C14.04 2.32, 24.05 0.86, 26.94 0 C29.82 -0.86, 26.94 0.08, 26.94 0.48 M26.94 0 C32.42 -0.31, 39.83 2.32, 44.25 5.64 C48.67 8.97, 52.46 14.84, 53.47 19.94 C54.47 25.03, 53.15 31.71, 50.27 36.19 C47.38 40.66, 41.58 45.03, 36.15 46.79 C30.73 48.56, 23.15 48.56, 17.72 46.79 C12.3 45.03, 6.49 40.66, 3.61 36.19 C0.72 31.71, -0.59 25.03, 0.41 19.94 C1.41 14.84, 5.2 8.97, 9.62 5.64 C14.04 2.32, 24.05 0.86, 26.94 0 C29.82 -0.86, 26.94 0.08, 26.94 0.48" stroke="none" stroke-width="0" fill="#fff"></path><path d="M26.94 0 C32.42 -0.31, 39.83 2.32, 44.25 5.64 C48.67 8.97, 52.46 14.84, 53.47 19.94 C54.47 25.03, 53.15 31.71, 50.27 36.19 C47.38 40.66, 41.58 45.03, 36.15 46.79 C30.73 48.56, 23.15 48.56, 17.72 46.79 C12.3 45.03, 6.49 40.66, 3.61 36.19 C0.72 31.71, -0.59 25.03, 0.41 19.94 C1.41 14.84, 5.2 8.97, 9.62 5.64 C14.04 2.32, 24.05 0.86, 26.94 0 C29.82 -0.86, 26.94 0.08, 26.94 0.48 M26.94 0 C32.42 -0.31, 39.83 2.32, 44.25 5.64 C48.67 8.97, 52.46 14.84, 53.47 19.94 C54.47 25.03, 53.15 31.71, 50.27 36.19 C47.38 40.66, 41.58 45.03, 36.15 46.79 C30.73 48.56, 23.15 48.56, 17.72 46.79 C12.3 45.03, 6.49 40.66, 3.61 36.19 C0.72 31.71, -0.59 25.03, 0.41 19.94 C1.41 14.84, 5.2 8.97, 9.62 5.64 C14.04 2.32, 24.05 0.86, 26.94 0 C29.82 -0.86, 26.94 0.08, 26.94 0.48" stroke="#000000" stroke-width="2" fill="none"></path></g><g transform="translate(37.67951965332031 124.83513641357422) rotate(0 64.5 12)"><text x="0" y="19" font-family="Cascadia, Segoe UI Emoji" font-size="20px" fill="#c2d3f2" text-anchor="start" style="white-space: pre;" direction="ltr">fs.readFile</text></g><g stroke-linecap="round" transform="translate(353.2008056640625 156.9183006286621) rotate(0 26.93796157836914 24.124393463134766)"><path d="M26.94 0 C32.42 -0.31, 39.83 2.32, 44.25 5.64 C48.67 8.97, 52.46 14.84, 53.47 19.94 C54.47 25.03, 53.15 31.71, 50.27 36.19 C47.38 40.66, 41.58 45.03, 36.15 46.79 C30.73 48.56, 23.15 48.56, 17.72 46.79 C12.3 45.03, 6.49 40.66, 3.61 36.19 C0.72 31.71, -0.59 25.03, 0.41 19.94 C1.41 14.84, 5.2 8.97, 9.62 5.64 C14.04 2.32, 24.05 0.86, 26.94 0 C29.82 -0.86, 26.94 0.08, 26.94 0.48 M26.94 0 C32.42 -0.31, 39.83 2.32, 44.25 5.64 C48.67 8.97, 52.46 14.84, 53.47 19.94 C54.47 25.03, 53.15 31.71, 50.27 36.19 C47.38 40.66, 41.58 45.03, 36.15 46.79 C30.73 48.56, 23.15 48.56, 17.72 46.79 C12.3 45.03, 6.49 40.66, 3.61 36.19 C0.72 31.71, -0.59 25.03, 0.41 19.94 C1.41 14.84, 5.2 8.97, 9.62 5.64 C14.04 2.32, 24.05 0.86, 26.94 0 C29.82 -0.86, 26.94 0.08, 26.94 0.48" stroke="none" stroke-width="0" fill="#fff"></path><path d="M26.94 0 C32.42 -0.31, 39.83 2.32, 44.25 5.64 C48.67 8.97, 52.46 14.84, 53.47 19.94 C54.47 25.03, 53.15 31.71, 50.27 36.19 C47.38 40.66, 41.58 45.03, 36.15 46.79 C30.73 48.56, 23.15 48.56, 17.72 46.79 C12.3 45.03, 6.49 40.66, 3.61 36.19 C0.72 31.71, -0.59 25.03, 0.41 19.94 C1.41 14.84, 5.2 8.97, 9.62 5.64 C14.04 2.32, 24.05 0.86, 26.94 0 C29.82 -0.86, 26.94 0.08, 26.94 0.48 M26.94 0 C32.42 -0.31, 39.83 2.32, 44.25 5.64 C48.67 8.97, 52.46 14.84, 53.47 19.94 C54.47 25.03, 53.15 31.71, 50.27 36.19 C47.38 40.66, 41.58 45.03, 36.15 46.79 C30.73 48.56, 23.15 48.56, 17.72 46.79 C12.3 45.03, 6.49 40.66, 3.61 36.19 C0.72 31.71, -0.59 25.03, 0.41 19.94 C1.41 14.84, 5.2 8.97, 9.62 5.64 C14.04 2.32, 24.05 0.86, 26.94 0 C29.82 -0.86, 26.94 0.08, 26.94 0.48" stroke="#000000" stroke-width="2" fill="none"></path></g><g transform="translate(315.35816955566406 122.87069320678711) rotate(0 70.5 12)"><text x="0" y="19" font-family="Cascadia, Segoe UI Emoji" font-size="20px" fill="#c2d3f2" text-anchor="start" style="white-space: pre;" direction="ltr">fs.writeFile</text></g><g stroke-linecap="round"><g transform="translate(150.92247009277344 187.72551727294922) rotate(0 93.58589172363281 0)"><path d="M0 0 C31.2 0, 155.98 0, 187.17 0" stroke="#c2d3f2" stroke-width="2.5" fill="none" stroke-dasharray="8 10"></path></g><g transform="translate(150.92247009277344 187.72551727294922) rotate(0 93.58589172363281 0)"><path d="M158.98 10.26 C169.78 6.33, 180.58 2.4, 187.17 0" stroke="#c2d3f2" stroke-width="2.5" fill="none"></path></g><g transform="translate(150.92247009277344 187.72551727294922) rotate(0 93.58589172363281 0)"><path d="M158.98 -10.26 C169.78 -6.33, 180.58 -2.4, 187.17 0" stroke="#c2d3f2" stroke-width="2.5" fill="none"></path></g></g><g transform="translate(195.87181091308594 195.04119873046875) rotate(0 41 12)"><text x="0" y="19" font-family="Cascadia, Segoe UI Emoji" font-size="20px" fill="#c2d3f2" text-anchor="start" style="white-space: pre;" direction="ltr">.then()</text></g><g stroke-linecap="round" transform="translate(621.618591308594 153.65514183044434) rotate(0 26.93796157836914 24.124393463134766)"><path d="M26.94 0 C32.42 -0.31, 39.83 2.32, 44.25 5.64 C48.67 8.97, 52.46 14.84, 53.47 19.94 C54.47 25.03, 53.15 31.71, 50.27 36.19 C47.38 40.66, 41.58 45.03, 36.15 46.79 C30.73 48.56, 23.15 48.56, 17.72 46.79 C12.3 45.03, 6.49 40.66, 3.61 36.19 C0.72 31.71, -0.59 25.03, 0.41 19.94 C1.41 14.84, 5.2 8.97, 9.62 5.64 C14.04 2.32, 24.05 0.86, 26.94 0 C29.82 -0.86, 26.94 0.08, 26.94 0.48 M26.94 0 C32.42 -0.31, 39.83 2.32, 44.25 5.64 C48.67 8.97, 52.46 14.84, 53.47 19.94 C54.47 25.03, 53.15 31.71, 50.27 36.19 C47.38 40.66, 41.58 45.03, 36.15 46.79 C30.73 48.56, 23.15 48.56, 17.72 46.79 C12.3 45.03, 6.49 40.66, 3.61 36.19 C0.72 31.71, -0.59 25.03, 0.41 19.94 C1.41 14.84, 5.2 8.97, 9.62 5.64 C14.04 2.32, 24.05 0.86, 26.94 0 C29.82 -0.86, 26.94 0.08, 26.94 0.48" stroke="none" stroke-width="0" fill="#fff"></path><path d="M26.94 0 C32.42 -0.31, 39.83 2.32, 44.25 5.64 C48.67 8.97, 52.46 14.84, 53.47 19.94 C54.47 25.03, 53.15 31.71, 50.27 36.19 C47.38 40.66, 41.58 45.03, 36.15 46.79 C30.73 48.56, 23.15 48.56, 17.72 46.79 C12.3 45.03, 6.49 40.66, 3.61 36.19 C0.72 31.71, -0.59 25.03, 0.41 19.94 C1.41 14.84, 5.2 8.97, 9.62 5.64 C14.04 2.32, 24.05 0.86, 26.94 0 C29.82 -0.86, 26.94 0.08, 26.94 0.48 M26.94 0 C32.42 -0.31, 39.83 2.32, 44.25 5.64 C48.67 8.97, 52.46 14.84, 53.47 19.94 C54.47 25.03, 53.15 31.71, 50.27 36.19 C47.38 40.66, 41.58 45.03, 36.15 46.79 C30.73 48.56, 23.15 48.56, 17.72 46.79 C12.3 45.03, 6.49 40.66, 3.61 36.19 C0.72 31.71, -0.59 25.03, 0.41 19.94 C1.41 14.84, 5.2 8.97, 9.62 5.64 C14.04 2.32, 24.05 0.86, 26.94 0 C29.82 -0.86, 26.94 0.08, 26.94 0.48" stroke="#000000" stroke-width="2" fill="none"></path></g><g transform="translate(547.6375732421873 118.42020988464355) rotate(0 111.5 12)"><text x="0" y="19" font-family="Cascadia, Segoe UI Emoji" font-size="20px" fill="#c2d3f2" text-anchor="start" style="white-space: pre;" direction="ltr">return tagsReplaced</text></g><g stroke-linecap="round"><g transform="translate(419.6509246826174 184.46235847473145) rotate(0 93.58589172363281 0)"><path d="M0 0 C31.2 0, 155.98 0, 187.17 0" stroke="#c2d3f2" stroke-width="2.5" fill="none" stroke-dasharray="8 10"></path></g><g transform="translate(419.6509246826174 184.46235847473145) rotate(0 93.58589172363281 0)"><path d="M158.98 10.26 C165.64 7.84, 172.3 5.41, 187.17 0" stroke="#c2d3f2" stroke-width="2.5" fill="none"></path></g><g transform="translate(419.6509246826174 184.46235847473145) rotate(0 93.58589172363281 0)"><path d="M158.98 -10.26 C165.64 -7.84, 172.3 -5.41, 187.17 0" stroke="#c2d3f2" stroke-width="2.5" fill="none"></path></g></g><g transform="translate(464.2895965576174 191.77803993225098) rotate(0 41 12)"><text x="0" y="19" font-family="Cascadia, Segoe UI Emoji" font-size="20px" fill="#c2d3f2" text-anchor="start" style="white-space: pre;" direction="ltr">.then()</text></g><g stroke-linecap="round" transform="translate(291.2425231933594 100.89362335205078) rotate(0 248.4384536743163 68.1315803527832)"><path d="M-0.83 -0.45 C190.31 -2.39, 380.64 -4.22, 495.82 0.75 M492.94 3.07 C497.4 35.6, 498.3 64.51, 499.19 136.68 M498.46 136.31 C330.09 134.22, 164.22 136.44, -0.58 135.39 M-1.21 135.34 C1.48 100.52, 1.77 64.21, -0.66 0.44" stroke="#fad390" stroke-width="2.5" fill="none" stroke-dasharray="8 10"></path></g><g transform="translate(347.10289001464844 62.5) rotate(0 135 12)"><text x="0" y="19" font-family="Cascadia, Segoe UI Emoji" font-size="20px" fill="#fad390" text-anchor="start" style="white-space: pre;" direction="ltr">rewriteHTMLFile promise</text></g><g stroke-linecap="round" transform="translate(10 47.35858154296875) rotate(0 397.93766021728504 108.9482307434082)"><path d="M-0.62 -1.12 C239.22 0.4, 478.48 2.22, 796.27 -0.7 M792.45 -2.63 C793.5 57.96, 795.24 123.83, 798.97 214.92 M794.6 218.59 C533.67 220.46, 272.01 222.01, -0.21 219.41 M-0.69 219.07 C-0.06 135.34, -1.35 48.86, -1.79 2.67" stroke="#f79f1f" stroke-width="2.5" fill="none" stroke-dasharray="8 10"></path></g><g stroke-linecap="round"><g transform="translate(692.9263305664065 178.2358512878418) rotate(0 142.48954772949196 0)"><path d="M0 0 C47.5 0, 237.48 0, 284.98 0" stroke="#c2d3f2" stroke-width="2.5" fill="none" stroke-dasharray="8 10"></path></g><g transform="translate(692.9263305664065 178.2358512878418) rotate(0 142.48954772949196 0)"><path d="M256.79 10.26 C264.55 7.44, 272.31 4.61, 284.98 0" stroke="#c2d3f2" stroke-width="2.5" fill="none"></path></g><g transform="translate(692.9263305664065 178.2358512878418) rotate(0 142.48954772949196 0)"><path d="M256.79 -10.26 C264.55 -7.44, 272.31 -4.61, 284.98 0" stroke="#c2d3f2" stroke-width="2.5" fill="none"></path></g></g><g transform="translate(826.1109924316404 141.8102684020996) rotate(0 41 12)"><text x="0" y="19" font-family="Cascadia, Segoe UI Emoji" font-size="20px" fill="#c2d3f2" text-anchor="start" style="white-space: pre;" direction="ltr">.then()</text></g><g stroke-linecap="round" transform="translate(991.3035392761228 152.00165939331055) rotate(0 26.93796157836914 24.124393463134766)"><path d="M26.94 0 C32.42 -0.31, 39.83 2.32, 44.25 5.64 C48.67 8.97, 52.46 14.84, 53.47 19.94 C54.47 25.03, 53.15 31.71, 50.27 36.19 C47.38 40.66, 41.58 45.03, 36.15 46.79 C30.73 48.56, 23.15 48.56, 17.72 46.79 C12.3 45.03, 6.49 40.66, 3.61 36.19 C0.72 31.71, -0.59 25.03, 0.41 19.94 C1.41 14.84, 5.2 8.97, 9.62 5.64 C14.04 2.32, 24.05 0.86, 26.94 0 C29.82 -0.86, 26.94 0.08, 26.94 0.48" stroke="none" stroke-width="0" fill="#fff"></path><path d="M26.94 0 C32.42 -0.31, 39.83 2.32, 44.25 5.64 C48.67 8.97, 52.46 14.84, 53.47 19.94 C54.47 25.03, 53.15 31.71, 50.27 36.19 C47.38 40.66, 41.58 45.03, 36.15 46.79 C30.73 48.56, 23.15 48.56, 17.72 46.79 C12.3 45.03, 6.49 40.66, 3.61 36.19 C0.72 31.71, -0.59 25.03, 0.41 19.94 C1.41 14.84, 5.2 8.97, 9.62 5.64 C14.04 2.32, 24.05 0.86, 26.94 0 C29.82 -0.86, 26.94 0.08, 26.94 0.48" stroke="#000000" stroke-width="2.5" fill="none" stroke-dasharray="1.5 8"></path></g><g transform="translate(31.15985870361328 10) rotate(0 117 12)"><text x="0" y="19" font-family="Cascadia, Segoe UI Emoji" font-size="20px" fill="#f79f1f" text-anchor="start" style="white-space: pre;" direction="ltr">readHTMLFile promise</text></g></svg>